<svg id="Layer_1" enable-background="new 0 0 256 256" height="512" viewBox="0 0 256 256" width="512"
     xmlns="http://www.w3.org/2000/svg">
    <g>
        <g>
            <path d="m112.636 158.032v-28.962h30.866v28.962h21.587c10.796.014 19.536 8.879 19.522 19.674v26.034h-113.223v-26.195c.014-10.796 8.828-19.536 19.623-19.522z"
                  fill="#526faa"/>
        </g>
        <g>
            <g>
                <path d="m165.09 158.032h-6.857c10.796.014 19.536 8.87 19.522 19.666v26.043h6.857v-26.034c.014-10.796-8.727-19.661-19.522-19.675z"
                      fill="#34518c"/>
            </g>
        </g>
        <g>
            <g>
                <path d="m91.011 158.023 6.857.009c-10.796-.014-19.61 8.727-19.623 19.522v26.186h-6.857v-26.195c.014-10.795 8.828-19.535 19.623-19.522z"
                      fill="#708dc8"/>
            </g>
        </g>
        <g>
            <path d="m184.612 205.741h-113.224c-1.104 0-2-.896-2-2v-26.195c.007-5.756 2.266-11.165 6.358-15.233 4.082-4.056 9.493-6.289 15.239-6.289h.029l19.622.008v-26.962c0-1.104.896-2 2-2h30.866c1.104 0 2 .896 2 2v26.962h19.587c5.755.007 11.165 2.275 15.236 6.387 4.061 4.101 6.293 9.531 6.286 15.29v26.032c.001 1.104-.894 2-1.999 2zm-111.224-4h109.225v-24.034c.006-4.699-1.815-9.127-5.129-12.473-3.315-3.348-7.718-5.195-12.396-5.201h-21.584c-1.104 0-2-.896-2-2v-26.963h-26.866v26.962c0 .531-.211 1.04-.586 1.415s-.884.585-1.414.585h-.001l-21.625-.009c-.008 0-.016 0-.023 0-4.685 0-9.095 1.82-12.421 5.126-3.334 3.313-5.173 7.716-5.179 12.398v24.194z"
                  fill="#690589"/>
        </g>
        <g>
            <path d="m112.636 129.07h30.866v31.036c0 8.524-6.91 15.433-15.433 15.433-8.523 0-15.433-6.91-15.433-15.433z"
                  fill="#ff9f70"/>
        </g>
        <g>
            <path d="m128.069 177.539c-9.612 0-17.433-7.82-17.433-17.433v-31.036c0-1.104.896-2 2-2h30.866c1.104 0 2 .896 2 2v31.036c.001 9.613-7.819 17.433-17.433 17.433zm-13.432-46.469v29.036c0 7.407 6.025 13.433 13.433 13.433s13.434-6.026 13.434-13.433v-29.036z"
                  fill="#690589"/>
        </g>
        <g>
            <path d="m97.434 102.649h-2.184c-5.647 0-10.224 4.577-10.224 10.224s4.578 10.224 10.224 10.224h2.184z"
                  fill="#ffbd8e"/>
        </g>
        <g>
            <path d="m160.807 102.649h-2.184v20.448h2.184c5.647 0 10.224-4.577 10.224-10.224.001-5.646-4.577-10.224-10.224-10.224z"
                  fill="#e18152"/>
        </g>
        <g>
            <path d="m128.029 154.624c-16.897 0-30.595-13.875-30.595-30.992v-21.456c0-17.117 13.698-30.992 30.595-30.992 16.897 0 30.595 13.876 30.595 30.992v21.456c-.001 17.116-13.698 30.992-30.595 30.992z"
                  fill="#ff9f70"/>
        </g>
        <g>
            <path d="m128.029 71.184c-1.176 0-2.335.074-3.477.205 15.259 1.749 27.118 14.862 27.118 30.787v21.456c0 15.925-11.859 29.038-27.118 30.787 1.142.131 2.3.205 3.477.205 16.897 0 30.595-13.875 30.595-30.992v-21.456c-.001-17.117-13.698-30.992-30.595-30.992z"
                  fill="#e18152"/>
        </g>
        <g>
            <path d="m128.029 71.184c1.176 0 2.335.074 3.477.205-15.259 1.749-27.118 14.862-27.118 30.787v21.456c0 15.925 11.859 29.038 27.118 30.787-1.142.131-2.3.205-3.477.205-16.897 0-30.595-13.875-30.595-30.992v-21.456c0-17.117 13.697-30.992 30.595-30.992z"
                  fill="#ffbd8e"/>
        </g>
        <g>
            <path d="m128.028 156.624c-17.973 0-32.595-14.8-32.595-32.992v-21.456c0-18.192 14.622-32.992 32.595-32.992s32.595 14.8 32.595 32.992v21.456c0 18.192-14.622 32.992-32.595 32.992zm0-83.44c-15.768 0-28.595 13.006-28.595 28.992v21.456c0 15.986 12.827 28.992 28.595 28.992s28.595-13.005 28.595-28.992v-21.456c0-15.987-12.827-28.992-28.595-28.992z"
                  fill="#690589"/>
        </g>
        <g>
            <path d="m97.434 125.097h-2.185c-6.74 0-12.224-5.483-12.224-12.224s5.483-12.225 12.224-12.225h2.185c1.104 0 2 .896 2 2v20.448c0 1.106-.896 2.001-2 2.001zm-2.185-20.448c-4.534 0-8.224 3.689-8.224 8.225 0 4.535 3.689 8.224 8.224 8.224h.185v-16.448h-.185z"
                  fill="#690589"/>
        </g>
        <g>
            <path d="m160.808 125.097h-2.185c-1.104 0-2-.896-2-2v-20.448c0-1.104.896-2 2-2h2.185c6.74 0 12.224 5.484 12.224 12.225-.001 6.74-5.484 12.223-12.224 12.223zm-.185-4h.185c4.534 0 8.224-3.689 8.224-8.224s-3.689-8.225-8.224-8.225h-.185z"
                  fill="#690589"/>
        </g>
        <g>
            <path d="m252 148.769v-41.538h-22.987c-2.67-13.056-7.824-25.201-14.921-35.951l16.275-16.275-29.372-29.372-16.275 16.275c-10.75-7.097-22.895-12.251-35.951-14.921v-22.987h-41.538v22.987c-13.056 2.67-25.201 7.825-35.951 14.921l-16.275-16.275-29.373 29.372 16.276 16.275c-7.097 10.75-12.251 22.895-14.921 35.951h-22.987v41.538h22.986c2.67 13.056 7.824 25.201 14.921 35.951l-16.276 16.275 29.372 29.372 16.275-16.275c10.75 7.097 22.895 12.251 35.951 14.921v22.987h41.538v-22.987c13.056-2.67 25.201-7.825 35.951-14.921l16.275 16.275 29.372-29.372-16.275-16.275c7.097-10.75 12.251-22.895 14.921-35.951zm-124.001 49.68c-38.907 0-70.449-31.541-70.449-70.449 0-38.907 31.541-70.449 70.449-70.449s70.45 31.542 70.45 70.449c0 38.908-31.541 70.449-70.45 70.449z"
                  fill="#fcc24c"/>
        </g>
        <g>
            <path d="m211.927 58.523-9.893 9.893c-1.626 1.626-1.99 4.166-.795 6.131 5.364 8.821 9.449 18.505 11.978 28.802.555 2.259 2.526 3.882 4.853 3.882h10.943c-2.67-13.056-7.824-25.201-14.921-35.951l16.275-16.275-29.372-29.372-7.461 7.461 18.394 18.394c1.942 1.942 1.942 5.092-.001 7.035z"
                  fill="#dea42e"/>
        </g>
        <g>
            <path d="m237.077 107.231h14.923v41.538h-14.923z" fill="#dea42e"/>
        </g>
        <g>
            <path d="m229.013 148.769h-10.943c-2.326 0-4.298 1.623-4.853 3.882-2.529 10.298-6.614 19.981-11.978 28.802-1.195 1.965-.832 4.505.795 6.131l9.893 9.893c1.943 1.943 1.943 5.092 0 7.035l-18.394 18.394 7.461 7.461 29.372-29.372-16.275-16.275c7.098-10.75 12.252-22.895 14.922-35.951z"
                  fill="#dea42e"/>
        </g>
        <g>
            <path d="m44.073 58.523 9.893 9.893c1.626 1.626 1.99 4.166.795 6.131-5.364 8.821-9.449 18.505-11.978 28.802-.555 2.259-2.526 3.882-4.853 3.882h-10.943c2.67-13.056 7.824-25.201 14.921-35.951l-16.275-16.275 29.372-29.372 7.461 7.461-18.393 18.394c-1.943 1.942-1.943 5.092 0 7.035z"
                  fill="#fce06a"/>
        </g>
        <g>
            <path d="m4 107.231h14.923v41.538h-14.923z" fill="#fce06a"/>
        </g>
        <g>
            <path d="m26.987 148.769h10.943c2.326 0 4.298 1.623 4.853 3.882 2.529 10.298 6.614 19.981 11.978 28.802 1.195 1.965.832 4.505-.795 6.131l-9.893 9.893c-1.943 1.943-1.943 5.092 0 7.035l18.394 18.394-7.461 7.461-29.372-29.372 16.276-16.275c-7.099-10.75-12.253-22.895-14.923-35.951z"
                  fill="#fce06a"/>
        </g>
        <g>
            <path d="m18.923 136c-1.104 0-2-.896-2-2v-12c0-1.104.896-2 2-2s2 .896 2 2v12c0 1.104-.896 2-2 2z"
                  fill="#690589"/>
        </g>
        <g>
            <path d="m148.769 254h-41.539c-1.104 0-2-.896-2-2v-21.367c-11.962-2.641-23.277-7.338-33.681-13.981l-15.131 15.13c-.781.781-2.047.781-2.828 0l-29.372-29.372c-.781-.781-.781-2.047 0-2.828l15.13-15.13c-6.642-10.402-11.34-21.718-13.981-33.682h-21.367c-1.104 0-2-.896-2-2v-41.538c0-1.104.896-2 2-2h21.367c2.642-11.963 7.339-23.279 13.981-33.682l-15.13-15.13c-.781-.781-.781-2.047 0-2.828l29.372-29.372c.781-.781 2.047-.781 2.828 0l15.131 15.13c10.402-6.643 21.718-11.34 33.681-13.981v-21.369c0-1.104.896-2 2-2h41.538c1.104 0 2 .896 2 2v21.368c11.963 2.642 23.279 7.339 33.682 13.981l15.131-15.13c.781-.781 2.047-.781 2.828 0l29.372 29.372c.781.781.781 2.047 0 2.828l-15.13 15.13c6.643 10.403 11.34 21.719 13.98 33.682h21.369c1.104 0 2 .896 2 2v41.538c0 1.104-.896 2-2 2h-21.368c-2.641 11.963-7.338 23.279-13.98 33.682l15.13 15.13c.781.781.781 2.047 0 2.828l-29.372 29.372c-.781.781-2.047.781-2.828 0l-15.131-15.13c-10.403 6.643-21.72 11.34-33.682 13.981v21.368c0 1.104-.896 2-2 2zm-39.539-4h37.538v-20.986c0-.95.668-1.769 1.6-1.959 12.581-2.573 24.44-7.496 35.25-14.631.793-.525 1.844-.417 2.516.255l14.861 14.86 26.544-26.543-14.861-14.861c-.672-.671-.778-1.723-.255-2.516 7.135-10.808 12.058-22.667 14.631-35.25.189-.931 1.009-1.599 1.959-1.599h20.987v-37.538h-20.987c-.95 0-1.77-.668-1.959-1.599-2.573-12.582-7.496-24.442-14.631-35.25-.523-.793-.417-1.845.255-2.516l14.861-14.861-26.544-26.543-14.861 14.861c-.671.672-1.724.78-2.516.255-10.808-7.135-22.668-12.057-35.25-14.631-.932-.19-1.6-1.009-1.6-1.959v-20.989h-37.538v20.987c0 .95-.668 1.769-1.6 1.959-12.58 2.574-24.44 7.496-35.248 14.631-.792.524-1.845.417-2.516-.255l-14.861-14.861-26.544 26.544 14.861 14.861c.672.671.778 1.723.255 2.516-7.135 10.807-12.058 22.667-14.632 35.25-.19.931-1.009 1.599-1.959 1.599h-20.986v37.538h20.986c.95 0 1.769.668 1.959 1.599 2.574 12.583 7.497 24.443 14.632 35.25.523.793.417 1.845-.255 2.516l-14.861 14.861 26.544 26.543 14.861-14.86c.672-.671 1.723-.779 2.516-.255 10.81 7.135 22.669 12.058 35.249 14.631.932.19 1.6 1.009 1.6 1.959v20.987zm18.769-49.551c-39.948 0-72.448-32.5-72.448-72.449s32.5-72.449 72.448-72.449c39.949 0 72.45 32.5 72.45 72.449s-32.501 72.449-72.45 72.449zm0-140.898c-37.742 0-68.448 30.706-68.448 68.449s30.706 68.449 68.448 68.449c37.743 0 68.45-30.706 68.45-68.449s-30.707-68.449-68.45-68.449z"
                  fill="#690589"/>
        </g>
        <g>
            <path d="m246.491 48.379-13.04-15.489-13.04-15.49-13.04 15.49-13.04 15.489h15.573v41.969h21.015v-41.969z"
                  fill="#526faa"/>
        </g>
        <g>
            <path d="m230.919 92.348h-21.016c-1.104 0-2-.896-2-2v-39.97h-13.572c-.778 0-1.485-.451-1.813-1.156s-.218-1.537.283-2.132l26.08-30.978c.76-.902 2.301-.902 3.061 0l26.08 30.978c.501.595.611 1.427.283 2.132s-1.035 1.156-1.813 1.156h-13.572v39.969c-.001 1.105-.897 2.001-2.001 2.001zm-19.016-4h17.016v-39.97c0-1.104.896-2 2-2h11.274l-21.782-25.873-21.782 25.873h11.274c1.104 0 2 .896 2 2z"
                  fill="#690589"/>
        </g>
    </g>
</svg>