<svg id="Capa_1" enable-background="new 0 0 512 512" height="512" viewBox="0 0 512 512" width="512"
     xmlns="http://www.w3.org/2000/svg">
    <g>
        <path id="XMLID_68_"
              d="m74.21 83.415-37.29 37.29c-8.38 8.38-8.38 21.967 0 30.347 8.38 8.38 21.967 8.38 30.347 0l37.29-37.29c8.38-8.38 8.38-21.967 0-30.347-8.38-8.38-21.967-8.38-30.347 0z"
              fill="#ff9eb1"/>
        <path id="XMLID_983_"
              d="m437.79 83.415 37.29 37.29c8.38 8.38 8.38 21.967 0 30.347-8.38 8.38-21.967 8.38-30.347 0l-37.29-37.29c-8.38-8.38-8.38-21.967 0-30.347 8.38-8.38 21.967-8.38 30.347 0z"
              fill="#ff9eb1"/>
        <path id="XMLID_979_" d="m77.264 126.563h45.608v40h-45.608z" fill="#fcf2dc"
              transform="matrix(.707 -.707 .707 .707 -74.326 113.686)"/>
        <circle id="XMLID_1625_" cx="256" cy="302" fill="#ff9eb1" r="200"/>
        <circle id="XMLID_1624_" cx="256" cy="302" fill="#fff" r="154"/>
        <path id="XMLID_1623_"
              d="m306 10h-100c-12.15 0-22 9.85-22 22 0 12.15 9.85 22 22 22h100c12.15 0 22-9.85 22-22 0-12.15-9.85-22-22-22z"
              fill="#ff9eb1"/>
        <path id="XMLID_1622_" d="m228 54h56v49.25h-56z" fill="#fcf2dc"/>
        <path id="XMLID_1621_" d="m391.932 123.759h40v45.608h-40z" fill="#fcf2dc"
              transform="matrix(.707 -.707 .707 .707 17.017 334.207)"/>
        <g fill="#df5d7b">
            <path d="m459.907 167.337c8.402 0 16.303-3.272 22.244-9.214s9.214-13.842 9.214-22.244c0-8.403-3.272-16.304-9.214-22.245l-37.29-37.29c-5.942-5.942-13.843-9.215-22.245-9.215s-16.303 3.272-22.245 9.215c-5.941 5.941-9.214 13.842-9.214 22.245 0 6.214 1.794 12.151 5.13 17.226l-16.593 16.593c-24.973-18.264-54.106-31.156-85.695-36.954v-31.454h12c17.645 0 32-14.355 32-32s-14.354-32-31.999-32h-100c-17.645 0-32 14.355-32 32s14.355 32 32 32h12v31.454c-31.589 5.797-60.722 18.69-85.695 36.954l-16.593-16.593c3.335-5.076 5.13-11.013 5.13-17.227 0-8.403-3.272-16.304-9.214-22.245-5.942-5.942-13.843-9.215-22.245-9.215s-16.303 3.272-22.245 9.215l-37.29 37.29c-5.941 5.941-9.214 13.842-9.214 22.245 0 8.402 3.272 16.303 9.214 22.244s13.842 9.214 22.244 9.214c6.214 0 12.151-1.794 17.227-5.13l16.671 16.671c-25.139 34.617-39.99 77.165-39.99 123.123 0 115.794 94.206 210 210 210s210-94.206 210-210c0-45.958-14.851-88.506-39.99-123.122l16.671-16.671c5.075 3.335 11.012 5.13 17.226 5.13zm-45.393-76.851c2.233-2.234 5.168-3.352 8.103-3.352s5.869 1.117 8.103 3.352l37.29 37.29c2.164 2.164 3.356 5.041 3.356 8.103 0 3.061-1.192 5.938-3.356 8.102s-5.041 3.356-8.102 3.356c-3.062 0-5.938-1.192-8.103-3.356l-37.291-37.29c-2.164-2.164-3.356-5.041-3.356-8.102-.001-3.062 1.192-5.939 3.356-8.103zm-220.514-58.486c0-6.617 5.383-12 12-12h100c6.617 0 12 5.383 12 12s-5.383 12-12 12h-100c-6.617 0-12-5.383-12-12zm44 32h36v28.78c-5.935-.506-11.936-.78-18-.78s-12.065.273-18 .78zm-194.009 79.98c-2.164-2.164-3.356-5.041-3.356-8.102 0-3.062 1.192-5.938 3.356-8.103l37.29-37.29c2.233-2.234 5.168-3.352 8.103-3.352s5.869 1.117 8.103 3.352c2.164 2.164 3.356 5.041 3.356 8.103 0 3.061-1.192 5.938-3.356 8.102l-37.291 37.29c-2.164 2.164-5.041 3.356-8.103 3.356-3.061.001-5.938-1.191-8.102-3.356zm39.952 4.566 18.107-18.107 14.602 14.602c-6.386 5.676-12.424 11.732-18.078 18.137zm172.057 343.454c-104.767 0-190-85.233-190-190s85.233-190 190-190 190 85.233 190 190-85.233 190-190 190zm157.425-328.822c-5.654-6.405-11.692-12.461-18.078-18.137l14.602-14.602 18.107 18.107z"/>
            <path d="m256 269.269c9.477 0 17.186 6.582 17.186 14.672 0 5.522 4.478 10 10 10s10-4.478 10-10c0-15.888-11.525-29.304-27.186-33.388v-1.548c0-5.522-4.478-10-10-10s-10 4.478-10 10v1.548c-15.661 4.084-27.186 17.5-27.186 33.388 0 19.119 16.682 34.673 37.186 34.673 9.477 0 17.186 6.582 17.186 14.672 0 8.091-7.709 14.673-17.186 14.673s-17.186-6.582-17.186-14.673c0-5.522-4.478-10-10-10s-10 4.478-10 10c0 15.889 11.525 29.305 27.186 33.389v.247c0 5.522 4.478 10 10 10s10-4.478 10-10v-.247c15.661-4.084 27.186-17.5 27.186-33.389 0-19.118-16.682-34.672-37.186-34.672-9.477 0-17.186-6.582-17.186-14.673 0-8.09 7.709-14.672 17.186-14.672z"/>
        </g>
    </g>
</svg>